<svg xmlns="http://www.w3.org/2000/svg" xmlns:xlink="http://www.w3.org/1999/xlink" viewBox="0,0,256,256" width="48px" height="48px" fill-rule="nonzero"><defs><linearGradient x1="11.274" y1="9.271" x2="36.726" y2="34.723" gradientUnits="userSpaceOnUse" id="color-1"><stop offset="0" stop-color="#02a1d4"></stop><stop offset="1" stop-color="#100cb9"></stop></linearGradient><radialGradient cx="24" cy="22.5" r="9.5" gradientUnits="userSpaceOnUse" id="color-2"><stop offset="0.177" stop-color="#000000"></stop><stop offset="1" stop-color="#000000" stop-opacity="0"></stop></radialGradient><radialGradient cx="23.842" cy="43.905" r="13.637" gradientUnits="userSpaceOnUse" id="color-3"><stop offset="0.177" stop-color="#000000"></stop><stop offset="1" stop-color="#000000" stop-opacity="0"></stop></radialGradient></defs><g fill="none" fill-rule="nonzero" stroke="none" stroke-width="1" stroke-linecap="butt" stroke-linejoin="miter" stroke-miterlimit="10" stroke-dasharray="" stroke-dashoffset="0" font-family="none" font-weight="none" font-size="none" text-anchor="none" style="mix-blend-mode: normal"><g transform="scale(5.33333,5.33333)"><path d="M36.902,34.536c3.15,-3.242 5.098,-7.659 5.098,-12.536c0,-9.94 -8.06,-18 -18,-18c-9.94,0 -18,8.06 -18,18c0,4.877 1.948,9.294 5.098,12.536c0.018,0.019 0.03,0.04 0.048,0.059l0.059,0.059c0.047,0.048 0.094,0.095 0.142,0.142l11.239,11.239c0.781,0.781 2.047,0.781 2.828,0l11.239,-11.239c0.048,-0.047 0.095,-0.094 0.142,-0.142l0.059,-0.059c0.019,-0.019 0.031,-0.041 0.048,-0.059z" fill="url(#color-1)"></path><circle cx="24" cy="22.5" r="9.5" fill="url(#color-2)"></circle><circle cx="24" cy="22" r="8" fill="#f9f9f9"></circle><path d="M24,30c-4.747,0 -8.935,2.368 -11.467,5.982l10.052,10.052c0.781,0.781 2.047,0.781 2.828,0l10.052,-10.052c-2.53,-3.614 -6.718,-5.982 -11.465,-5.982z" fill="url(#color-3)"></path><path d="M24,32c-4.196,0 -7.884,2.157 -10.029,5.42l8.615,8.615c0.781,0.781 2.047,0.781 2.828,0l8.615,-8.615c-2.145,-3.263 -5.833,-5.42 -10.029,-5.42z" fill="#0d66de"></path></g></g></svg>